# xmcd
#
# Track frame offsets:
#	225
#	20604
#	40138
#	63561
#	73944
#	88441
#	102972
#	116120
#	140558
#	157426
#	170219
#	186863
#	213119
#	230861
#	249868
#	262797
#	281514
#	303234
#
# Disc length: 4482 seconds
#
# Revision: 1
# Processed by: cddbd v1.5.1PL0 Copyright (c) Steve Scherf et al.
# Submitted via: audiograbber 1.83.01
#
DISCID=16117f12
DTITLE=Pod Buda - Blues o starych sasiadach
DYEAR=1900
DGENRE=
TTITLE0=Piosenka o mojej ulicy
TTITLE1=Ballada o walizce
TTITLE2=Piosenka o ulicznym grajku
TTITLE3=Bardzo smutna piosenka retro
TTITLE4=Gdy mnie kochac przestaniesz
TTITLE5=Ballada o drugim brzegu
TTITLE6=Piosenka o filizance
TTITLE7=Blues o starych sasiadach
TTITLE8=Ballada o Matyldzie
TTITLE9=Przy niedzieli zabawa
TTITLE10=List do swiata
TTITLE11=Kiedy uslysze dobre slowo
TTITLE12=Wizyta u malarki
TTITLE13=Ogladamy niebo lipcowe
TTITLE14=O la ri ja
TTITLE15=Krakow, Piwna
TTITLE16=Zamieszkamy pod wspolnym dachem
TTITLE17=data
EXTD=
EXTT0=
EXTT1=
EXTT2=
EXTT3=
EXTT4=
EXTT5=
EXTT6=
EXTT7=
EXTT8=
EXTT9=
EXTT10=
EXTT11=
EXTT12=
EXTT13=
EXTT14=
EXTT15=
EXTT16=
EXTT17=
PLAYORDER=
